# xmcd
#
# Track frame offsets:
#	150
#	18622
#	34937
#	51392
#	64977
#	82705
#	98070
#	113277
#	130192
#	144937
#	163227
#	179050
#	195132
#	212282
#
# Disc length: 3035 seconds
#
# Revision: 1
# Processed by: cddbd v1.5.1PL2 Copyright (c) Steve Scherf et al.
# Submitted via: audiograbber 1.83.01
#
DISCID=b50bd90e
DTITLE=Star Disc - SD060
DYEAR=1900
DGENRE=Country
TTITLE0=Jackson, Alan - Gone Crazy
TTITLE1=Strait, George - Meanwhile
TTITLE2=Black Clint - You Don't Need Me Now
TTITLE3=Loveless, Patty - Can't Get Enough
TTITLE4=Lonestar - Saturday Night
TTITLE5=Walker, Clay - She's Always Right
TTITLE6=Travis, Randy - Stranger In My Mirror
TTITLE7=Keith, Toby - If A Man Answers
TTITLE8=McCloy, Neil - I Was
TTITLE9=Brock, Chad - Ordinary Life
TTITLE10=Blackhawk - Your Own Little Corner Of My Heart
TTITLE11=McCann, Lila - With You
TTITLE12=Church, Claudia - What's The Matter With You Baby
TTITLE13=Tippen, Aaron - I'm Leaving
EXTD=MediaType: Karaoke CD+G Producer: StarDisc
EXTT0=
EXTT1=
EXTT2=
EXTT3=
EXTT4=
EXTT5=
EXTT6=
EXTT7=
EXTT8=
EXTT9=
EXTT10=
EXTT11=
EXTT12=
EXTT13=
PLAYORDER=
